<svg version="1.2" xmlns="http://www.w3.org/2000/svg" viewBox="0 0 49 48" width="49" height="48" fill="#cccccc">
	<path id="Layer copy 2" class="s0" d="m0 10.6q0-0.4 0-0.8 0.1-0.3 0.1-0.6 0.1-0.2 0.1-0.4 0.1-0.1 0.2-0.1h8.2q0.1 0 0.2 0.1 0 0.2 0.1 0.4 0 0.3 0.1 0.6 0 0.4 0 0.8v26.8q0 0.4 0 0.8-0.1 0.3-0.1 0.6-0.1 0.2-0.1 0.4-0.1 0.1-0.2 0.1h-8.2q-0.1 0-0.2-0.1 0-0.2-0.1-0.4 0-0.3-0.1-0.6 0-0.4 0-0.8z"/>
	<path id="Layer copy 3" class="s0" d="m40 10.6q0-0.4 0-0.8 0.1-0.3 0.1-0.6 0.1-0.2 0.1-0.4 0.1-0.1 0.2-0.1h8.2q0.1 0 0.2 0.1 0 0.2 0.1 0.4 0 0.3 0.1 0.6 0 0.4 0 0.8v26.8q0 0.4 0 0.8-0.1 0.3-0.1 0.6-0.1 0.2-0.1 0.4-0.1 0.1-0.2 0.1h-8.2q-0.1 0-0.2-0.1 0-0.2-0.1-0.4 0-0.3-0.1-0.6 0-0.4 0-0.8z"/>
	<path id="Layer copy 4" class="s0" d="m10 10.6q0-0.4 0-0.8 0.1-0.3 0.1-0.6 0.1-0.2 0.1-0.4 0.1-0.1 0.2-0.1h8.2q0.1 0 0.2 0.1 0 0.2 0.1 0.4 0 0.3 0.1 0.6 0 0.4 0 0.8v26.8q0 0.4 0 0.8-0.1 0.3-0.1 0.6-0.1 0.2-0.1 0.4-0.1 0.1-0.2 0.1h-8.2q-0.1 0-0.2-0.1 0-0.2-0.1-0.4 0-0.3-0.1-0.6 0-0.4 0-0.8z"/>
	<path id="Layer copy 6" class="s0" d="m20 10.6q0-0.4 0-0.8 0.1-0.3 0.1-0.6 0.1-0.2 0.1-0.4 0.1-0.1 0.2-0.1h8.2q0.1 0 0.2 0.1 0 0.2 0.1 0.4 0 0.3 0.1 0.6 0 0.4 0 0.8v26.8q0 0.4 0 0.8-0.1 0.3-0.1 0.6-0.1 0.2-0.1 0.4-0.1 0.1-0.2 0.1h-8.2q-0.1 0-0.2-0.1 0-0.2-0.1-0.4 0-0.3-0.1-0.6 0-0.4 0-0.8z"/>
	<path id="Layer copy 5" class="s0" d="m30 10.6q0-0.4 0-0.8 0.1-0.3 0.1-0.6 0.1-0.2 0.1-0.4 0.1-0.1 0.2-0.1h8.2q0.1 0 0.2 0.1 0 0.2 0.1 0.4 0 0.3 0.1 0.6 0 0.4 0 0.8v26.8q0 0.4 0 0.8-0.1 0.3-0.1 0.6-0.1 0.2-0.1 0.4-0.1 0.1-0.2 0.1h-8.2q-0.1 0-0.2-0.1 0-0.2-0.1-0.4 0-0.3-0.1-0.6 0-0.4 0-0.8z"/>
</svg>
