<svg version="1.2" xmlns="http://www.w3.org/2000/svg" viewBox="0 0 48 48" width="48" height="48"  fill="#cccccc">
	<path class="s0" d="m25 10.6q0-0.4 0.1-0.8 0-0.3 0.2-0.6 0.1-0.2 0.3-0.4 0.2-0.1 0.4-0.1h21q0.2 0 0.4 0.1 0.2 0.2 0.3 0.4 0.2 0.3 0.2 0.6 0.1 0.4 0.1 0.8v26.8q0 0.4-0.1 0.8 0 0.3-0.2 0.6-0.1 0.2-0.3 0.4-0.2 0.1-0.4 0.1h-21q-0.2 0-0.4-0.1-0.2-0.2-0.3-0.4-0.2-0.3-0.2-0.6-0.1-0.4-0.1-0.8z"/>
	<path id="Layer copy" class="s0" d="m0 10.6q0-0.4 0.1-0.8 0-0.3 0.2-0.6 0.1-0.2 0.3-0.4 0.2-0.1 0.4-0.1h21q0.2 0 0.4 0.1 0.2 0.2 0.3 0.4 0.2 0.3 0.2 0.6 0.1 0.4 0.1 0.8v26.8q0 0.4-0.1 0.8 0 0.3-0.2 0.6-0.1 0.2-0.3 0.4-0.2 0.1-0.4 0.1h-21q-0.2 0-0.4-0.1-0.2-0.2-0.3-0.4-0.2-0.3-0.2-0.6-0.1-0.4-0.1-0.8z"/>
</svg>
